<mxfile host="app.diagrams.net" modified="2023-11-28T04:03:32.656Z" agent="Mozilla/5.0 (Windows NT 10.0; Win64; x64) AppleWebKit/537.36 (KHTML, like Gecko) Chrome/119.0.0.0 Safari/537.36 Edg/119.0.0.0" etag="q0b9tjotc0RHGLqMBLJ3" version="22.1.4" type="device">
  <diagram name="第 1 页" id="4sAxvb8bW4fiWT-uoehL">
    <mxGraphModel dx="652" dy="459" grid="0" gridSize="10" guides="1" tooltips="1" connect="1" arrows="1" fold="1" page="1" pageScale="1" pageWidth="827" pageHeight="1169" math="1" shadow="0">
      <root>
        <mxCell id="0" />
        <mxCell id="1" parent="0" />
        <mxCell id="fp0ekR2GamAKN2c-QMze-20" style="edgeStyle=orthogonalEdgeStyle;rounded=0;orthogonalLoop=1;jettySize=auto;html=1;exitX=1;exitY=0.5;exitDx=0;exitDy=0;entryX=0;entryY=0.5;entryDx=0;entryDy=0;" edge="1" parent="1" source="fp0ekR2GamAKN2c-QMze-1" target="fp0ekR2GamAKN2c-QMze-4">
          <mxGeometry relative="1" as="geometry" />
        </mxCell>
        <mxCell id="fp0ekR2GamAKN2c-QMze-1" value="$$z_i$$" style="rounded=1;whiteSpace=wrap;html=1;" vertex="1" parent="1">
          <mxGeometry x="40" y="280" width="40" height="40" as="geometry" />
        </mxCell>
        <mxCell id="fp0ekR2GamAKN2c-QMze-21" style="edgeStyle=orthogonalEdgeStyle;rounded=0;orthogonalLoop=1;jettySize=auto;html=1;exitX=1;exitY=0.5;exitDx=0;exitDy=0;entryX=0;entryY=0.5;entryDx=0;entryDy=0;" edge="1" parent="1" source="fp0ekR2GamAKN2c-QMze-4" target="fp0ekR2GamAKN2c-QMze-6">
          <mxGeometry relative="1" as="geometry" />
        </mxCell>
        <mxCell id="fp0ekR2GamAKN2c-QMze-4" value="$$\cdot$$" style="ellipse;whiteSpace=wrap;html=1;aspect=fixed;" vertex="1" parent="1">
          <mxGeometry x="100" y="280" width="40" height="40" as="geometry" />
        </mxCell>
        <mxCell id="fp0ekR2GamAKN2c-QMze-27" style="edgeStyle=orthogonalEdgeStyle;rounded=0;orthogonalLoop=1;jettySize=auto;html=1;exitX=0.5;exitY=0;exitDx=0;exitDy=0;entryX=0.5;entryY=1;entryDx=0;entryDy=0;" edge="1" parent="1" source="fp0ekR2GamAKN2c-QMze-5" target="fp0ekR2GamAKN2c-QMze-4">
          <mxGeometry relative="1" as="geometry" />
        </mxCell>
        <mxCell id="fp0ekR2GamAKN2c-QMze-5" value="&lt;br&gt;&lt;span style=&quot;color: rgb(0, 0, 0); font-family: Helvetica; font-size: 12px; font-style: normal; font-variant-ligatures: normal; font-variant-caps: normal; font-weight: 400; letter-spacing: normal; orphans: 2; text-align: center; text-indent: 0px; text-transform: none; widows: 2; word-spacing: 0px; -webkit-text-stroke-width: 0px; background-color: rgb(251, 251, 251); text-decoration-thickness: initial; text-decoration-style: initial; text-decoration-color: initial; float: none; display: inline !important;&quot;&gt;$$w_{ji}$$&lt;/span&gt;&lt;br&gt;" style="rounded=1;whiteSpace=wrap;html=1;" vertex="1" parent="1">
          <mxGeometry x="100" y="340" width="40" height="40" as="geometry" />
        </mxCell>
        <mxCell id="fp0ekR2GamAKN2c-QMze-22" style="edgeStyle=orthogonalEdgeStyle;rounded=0;orthogonalLoop=1;jettySize=auto;html=1;exitX=1;exitY=0.5;exitDx=0;exitDy=0;entryX=0;entryY=0.5;entryDx=0;entryDy=0;" edge="1" parent="1" source="fp0ekR2GamAKN2c-QMze-6" target="fp0ekR2GamAKN2c-QMze-7">
          <mxGeometry relative="1" as="geometry" />
        </mxCell>
        <mxCell id="fp0ekR2GamAKN2c-QMze-6" value="$$a_j$$" style="rounded=1;whiteSpace=wrap;html=1;" vertex="1" parent="1">
          <mxGeometry x="160" y="280" width="40" height="40" as="geometry" />
        </mxCell>
        <mxCell id="fp0ekR2GamAKN2c-QMze-23" style="edgeStyle=orthogonalEdgeStyle;rounded=0;orthogonalLoop=1;jettySize=auto;html=1;exitX=1;exitY=0.5;exitDx=0;exitDy=0;entryX=0;entryY=0.5;entryDx=0;entryDy=0;" edge="1" parent="1" source="fp0ekR2GamAKN2c-QMze-7" target="fp0ekR2GamAKN2c-QMze-8">
          <mxGeometry relative="1" as="geometry" />
        </mxCell>
        <mxCell id="fp0ekR2GamAKN2c-QMze-7" value="$$h&#39;(\cdot)$$" style="rounded=1;whiteSpace=wrap;html=1;" vertex="1" parent="1">
          <mxGeometry x="220" y="280" width="40" height="40" as="geometry" />
        </mxCell>
        <mxCell id="fp0ekR2GamAKN2c-QMze-25" style="edgeStyle=orthogonalEdgeStyle;rounded=0;orthogonalLoop=1;jettySize=auto;html=1;exitX=1;exitY=0.5;exitDx=0;exitDy=0;entryX=0;entryY=0.5;entryDx=0;entryDy=0;" edge="1" parent="1" source="fp0ekR2GamAKN2c-QMze-8" target="fp0ekR2GamAKN2c-QMze-11">
          <mxGeometry relative="1" as="geometry" />
        </mxCell>
        <mxCell id="fp0ekR2GamAKN2c-QMze-8" value="$$z_j$$" style="rounded=1;whiteSpace=wrap;html=1;" vertex="1" parent="1">
          <mxGeometry x="280" y="280" width="40" height="40" as="geometry" />
        </mxCell>
        <mxCell id="fp0ekR2GamAKN2c-QMze-9" value="$$a_k$$" style="rounded=1;whiteSpace=wrap;html=1;" vertex="1" parent="1">
          <mxGeometry x="400" y="280" width="40" height="40" as="geometry" />
        </mxCell>
        <mxCell id="fp0ekR2GamAKN2c-QMze-28" style="edgeStyle=orthogonalEdgeStyle;rounded=0;orthogonalLoop=1;jettySize=auto;html=1;exitX=0.5;exitY=0;exitDx=0;exitDy=0;entryX=0.5;entryY=1;entryDx=0;entryDy=0;" edge="1" parent="1" source="fp0ekR2GamAKN2c-QMze-10" target="fp0ekR2GamAKN2c-QMze-11">
          <mxGeometry relative="1" as="geometry" />
        </mxCell>
        <mxCell id="fp0ekR2GamAKN2c-QMze-10" value="$$w_{kj}$$" style="rounded=1;whiteSpace=wrap;html=1;" vertex="1" parent="1">
          <mxGeometry x="340" y="340" width="40" height="40" as="geometry" />
        </mxCell>
        <mxCell id="fp0ekR2GamAKN2c-QMze-26" style="edgeStyle=orthogonalEdgeStyle;rounded=0;orthogonalLoop=1;jettySize=auto;html=1;exitX=1;exitY=0.5;exitDx=0;exitDy=0;entryX=0;entryY=0.5;entryDx=0;entryDy=0;" edge="1" parent="1" source="fp0ekR2GamAKN2c-QMze-11" target="fp0ekR2GamAKN2c-QMze-9">
          <mxGeometry relative="1" as="geometry" />
        </mxCell>
        <mxCell id="fp0ekR2GamAKN2c-QMze-11" value="$$\cdot$$" style="ellipse;whiteSpace=wrap;html=1;aspect=fixed;" vertex="1" parent="1">
          <mxGeometry x="340" y="280" width="40" height="40" as="geometry" />
        </mxCell>
        <mxCell id="fp0ekR2GamAKN2c-QMze-34" style="edgeStyle=orthogonalEdgeStyle;rounded=0;orthogonalLoop=1;jettySize=auto;html=1;exitX=1;exitY=0.5;exitDx=0;exitDy=0;entryX=0;entryY=0.5;entryDx=0;entryDy=0;" edge="1" parent="1" source="fp0ekR2GamAKN2c-QMze-12" target="fp0ekR2GamAKN2c-QMze-18">
          <mxGeometry relative="1" as="geometry" />
        </mxCell>
        <mxCell id="fp0ekR2GamAKN2c-QMze-12" value="$$y_k$$" style="rounded=1;whiteSpace=wrap;html=1;" vertex="1" parent="1">
          <mxGeometry x="520" y="340" width="40" height="40" as="geometry" />
        </mxCell>
        <mxCell id="fp0ekR2GamAKN2c-QMze-33" style="edgeStyle=orthogonalEdgeStyle;rounded=0;orthogonalLoop=1;jettySize=auto;html=1;exitX=1;exitY=0.5;exitDx=0;exitDy=0;entryX=0;entryY=0.5;entryDx=0;entryDy=0;" edge="1" parent="1" source="fp0ekR2GamAKN2c-QMze-14" target="fp0ekR2GamAKN2c-QMze-12">
          <mxGeometry relative="1" as="geometry" />
        </mxCell>
        <mxCell id="fp0ekR2GamAKN2c-QMze-14" value="$$\sigma(\cdot)$$" style="rounded=1;whiteSpace=wrap;html=1;" vertex="1" parent="1">
          <mxGeometry x="460" y="340" width="40" height="40" as="geometry" />
        </mxCell>
        <mxCell id="fp0ekR2GamAKN2c-QMze-32" style="edgeStyle=orthogonalEdgeStyle;rounded=0;orthogonalLoop=1;jettySize=auto;html=1;exitX=1;exitY=0.5;exitDx=0;exitDy=0;entryX=0;entryY=0.5;entryDx=0;entryDy=0;" edge="1" parent="1" source="fp0ekR2GamAKN2c-QMze-15" target="fp0ekR2GamAKN2c-QMze-16">
          <mxGeometry relative="1" as="geometry" />
        </mxCell>
        <mxCell id="fp0ekR2GamAKN2c-QMze-15" value="$$y_k$$" style="rounded=1;whiteSpace=wrap;html=1;" vertex="1" parent="1">
          <mxGeometry x="520" y="220" width="40" height="40" as="geometry" />
        </mxCell>
        <mxCell id="fp0ekR2GamAKN2c-QMze-16" value="$$t_k$$" style="rounded=1;whiteSpace=wrap;html=1;" vertex="1" parent="1">
          <mxGeometry x="580" y="220" width="40" height="40" as="geometry" />
        </mxCell>
        <mxCell id="fp0ekR2GamAKN2c-QMze-18" value="$$t_k$$" style="rounded=1;whiteSpace=wrap;html=1;" vertex="1" parent="1">
          <mxGeometry x="580" y="340" width="40" height="40" as="geometry" />
        </mxCell>
        <mxCell id="fp0ekR2GamAKN2c-QMze-30" value="" style="edgeStyle=elbowEdgeStyle;elbow=horizontal;endArrow=classic;html=1;curved=0;rounded=0;endSize=8;startSize=8;exitX=1;exitY=0.5;exitDx=0;exitDy=0;entryX=0;entryY=0.5;entryDx=0;entryDy=0;" edge="1" parent="1" source="fp0ekR2GamAKN2c-QMze-9" target="fp0ekR2GamAKN2c-QMze-15">
          <mxGeometry width="50" height="50" relative="1" as="geometry">
            <mxPoint x="330" y="360" as="sourcePoint" />
            <mxPoint x="380" y="310" as="targetPoint" />
            <Array as="points">
              <mxPoint x="480" y="280" />
            </Array>
          </mxGeometry>
        </mxCell>
        <mxCell id="fp0ekR2GamAKN2c-QMze-31" value="" style="edgeStyle=elbowEdgeStyle;elbow=horizontal;endArrow=classic;html=1;curved=0;rounded=0;endSize=8;startSize=8;entryX=0.5;entryY=0;entryDx=0;entryDy=0;" edge="1" parent="1" target="fp0ekR2GamAKN2c-QMze-14">
          <mxGeometry width="50" height="50" relative="1" as="geometry">
            <mxPoint x="440" y="300" as="sourcePoint" />
            <mxPoint x="490" y="250" as="targetPoint" />
            <Array as="points">
              <mxPoint x="480" y="300" />
            </Array>
          </mxGeometry>
        </mxCell>
      </root>
    </mxGraphModel>
  </diagram>
</mxfile>
